<?xml version="1.0" encoding="utf-8"?>
<!-- Generator: Adobe Illustrator 27.8.0, SVG Export Plug-In . SVG Version: 6.00 Build 0)  -->
<svg version="1.1" id="Ebene_1" xmlns="http://www.w3.org/2000/svg" xmlns:xlink="http://www.w3.org/1999/xlink" x="0px" y="0px"
	 viewBox="0 0 459.4 219.6" style="enable-background:new 0 0 459.4 219.6;" xml:space="preserve">
<style type="text/css">
	.st0{fill-rule:evenodd;clip-rule:evenodd;fill:#1E3C72;}
</style>
<g>
	<path class="st0" d="M21.3,76.9l10.9-37.8c0,0,37.2-7.9,57.7-7.9s63.9,4.4,64,44.4c0.1,25.2-16,33.4-16,33.4s14.2,15.5,12.4,34.2
		c-2.9,30.2-38.6,42.2-57.4,42.4L28.5,185c0,0-9.9-13.6-9.9-28.9s20.8-76.7,16.8-81.8C34.5,73,21.3,76.9,21.3,76.9L21.3,76.9z
		 M113.9,76.1c0.3-10-19.1-14.2-28.3-14.2c-9.1,0-12.1,1.1-15.5,1.6c-3.4,0.5-6.4,2.1-6.3,4.2c0.1,3.8,8.2,5.1,8.6,8.8
		c0.1,1.3-15.5,48-16.4,53.4c-1.2,7.2-0.9,14-0.9,14s8.9,10.1,21.5,9.9c12.5-0.2,20.9-3.5,27.5-9.1c7.9-6.7,7.3-15.7,5.1-17.4
		c-4-3.1-19.1,2-19.1,2L72.7,98.6c0,0,7.1-2,17.3-4.3C100.2,92,113.6,86.1,113.9,76.1L113.9,76.1z"/>
	<path class="st0" d="M156,137.1l12.3-36l20.1,0.2l18.2-68.6l36.2,0.4L225.1,102l49.9,1.5l23.8-70.1l33.2,0l-42.1,154.1l-36.5-0.3
		c0,0,18.3-64.3,17.2-66.1c-0.6-1-4.8,3.3-7,7.3c-2.1,4-6.2,8.3-6.2,8.3h-43.1l-16.6,50.7h-36l16.4-50.4L156,137.1L156,137.1z"/>
	<path class="st0" d="M411.7,88.3c0,0-0.4-7.7-1.5-12.4c-1.1-4.7-6.6-9.3-13.4-9.2c-6.7,0.1-12.1,6.7-13.2,13.1
		c-1.1,6.4,7.3,18.8,13.7,28c6.4,9.2,23.1,25.6,24.9,34c1.3,6.1,0.4,18.8-5.7,28c-6,9-21.5,19-21.5,19s-20.4,1.9-34.9,1.9
		c-14.5,0-26.7-1.4-34.5-2.3c-7.8-0.9-14.2-3.4-14.2-3.4s-0.3-13.5,0.7-22.6c1-9.1,7.4-23.9,7.4-23.9l33.7,0.4c0,0-1.2,6.3-0.9,9.6
		c0.3,3.3,5.8,6.8,12.2,6.8c6.4,0,11.7-3.3,13.2-10.1c1.3-6.2-4.3-20.3-6.8-24c-3.7-5.5-14.2-16.6-15.6-18.2
		c-1.4-1.7-16.9-15.3-14.7-35.2C343,48,364.3,40.8,376.5,38c12.2-2.8,39-3.7,50.3-1.9c15.2,2.4,19.5,6.5,19.5,6.5
		s-0.8,14.2-3.1,25.1c-1.6,7.5-6.2,18.2-6.2,18.2s-6.6,1.8-12.7,2.5C418.2,89.1,411.7,88.3,411.7,88.3L411.7,88.3z"/>
</g>
</svg>
